<?xml version="1.0" encoding="UTF-8"?><svg id="Layer_1" xmlns="http://www.w3.org/2000/svg" viewBox="0 0 617.74 227.89"><defs><style>.cls-1{fill:#333f48;}.cls-1,.cls-2,.cls-3,.cls-4{stroke-width:0px;}.cls-2{fill:#fff;}.cls-3{fill:#fdd74e;}.cls-4{fill:#f7971d;}</style></defs><rect class="cls-3" x="0" y="0" width="617.74" height="227.89" rx="113.94" ry="113.94"/><path class="cls-1" d="M57.69,139.14c-4.71,0-8.48-1.4-11.31-4.2-2.83-2.8-4.25-6.53-4.25-11.19,0-3.26.81-6.14,2.43-8.64s3.87-4.4,6.73-5.69c2.86-1.3,6.14-1.95,9.83-1.95,3.06,0,6.43.43,10.12,1.3v-4.99c0-3.06-.61-5.16-1.81-6.29-1.21-1.13-3.44-1.7-6.68-1.7-4.33,0-9.2.8-14.61,2.4-.19.07-.38.12-.57.15-.19.03-.35.05-.48.05-1.08,0-1.62-.77-1.62-2.3v-4.5c0-1.06.13-1.8.38-2.2.25-.4.83-.8,1.72-1.2,2.23-1,4.92-1.78,8.07-2.35s6.35-.85,9.6-.85c6.56,0,11.35,1.38,14.37,4.15,3.02,2.76,4.54,7.11,4.54,13.04v32.86c0,.87-.18,1.5-.53,1.9-.35.4-.97.6-1.86.6h-6.49c-.76,0-1.35-.17-1.77-.5s-.72-.9-.91-1.7l-.57-2.3c-1.97,1.87-4.25,3.35-6.83,4.45-2.58,1.1-5.08,1.65-7.5,1.65ZM61.61,129.35c1.59,0,3.23-.37,4.92-1.1,1.69-.73,3.26-1.73,4.73-3v-8.69c-2.8-.47-5.32-.7-7.54-.7-5.54,0-8.31,2.33-8.31,6.99,0,2.07.54,3.66,1.62,4.79,1.08,1.13,2.61,1.7,4.58,1.7Z"/><path class="cls-1" d="M99.71,137.54c-.83,0-1.43-.2-1.81-.6-.38-.4-.57-1.03-.57-1.9v-46.05c0-.93.19-1.58.57-1.95.38-.37.99-.55,1.81-.55h6.88c1.46,0,2.35.73,2.67,2.2l.76,2.7c3.37-2.33,6.41-3.98,9.12-4.94,2.71-.96,5.49-1.45,8.36-1.45,5.73,0,9.77,2.13,12.13,6.39,3.25-2.26,6.3-3.9,9.17-4.9,2.86-1,5.82-1.5,8.88-1.5,4.46,0,7.91,1.3,10.36,3.9,2.45,2.6,3.67,6.23,3.67,10.89v35.26c0,.87-.18,1.5-.52,1.9-.35.4-.97.6-1.86.6h-9.17c-.83,0-1.43-.2-1.81-.6-.38-.4-.57-1.03-.57-1.9v-32.06c0-4.53-1.94-6.79-5.83-6.79-3.44,0-6.91.87-10.41,2.6v36.26c0,.87-.18,1.5-.53,1.9-.35.4-.97.6-1.86.6h-9.17c-.83,0-1.43-.2-1.81-.6-.38-.4-.57-1.03-.57-1.9v-32.06c0-4.53-1.94-6.79-5.83-6.79-3.57,0-7.07.9-10.5,2.7v36.16c0,.87-.18,1.5-.53,1.9-.35.4-.97.6-1.86.6h-9.17Z"/><path class="cls-1" d="M197.39,139.14c-4.71,0-8.48-1.4-11.31-4.2-2.83-2.8-4.25-6.53-4.25-11.19,0-3.26.81-6.14,2.43-8.64s3.87-4.4,6.73-5.69c2.86-1.3,6.14-1.95,9.83-1.95,3.06,0,6.43.43,10.12,1.3v-4.99c0-3.06-.61-5.16-1.81-6.29-1.21-1.13-3.44-1.7-6.68-1.7-4.33,0-9.2.8-14.61,2.4-.19.07-.38.12-.57.15-.19.03-.35.05-.48.05-1.08,0-1.62-.77-1.62-2.3v-4.5c0-1.06.13-1.8.38-2.2.25-.4.83-.8,1.72-1.2,2.23-1,4.92-1.78,8.07-2.35s6.35-.85,9.6-.85c6.56,0,11.35,1.38,14.37,4.15,3.02,2.76,4.54,7.11,4.54,13.04v32.86c0,.87-.18,1.5-.53,1.9-.35.4-.97.6-1.86.6h-6.49c-.76,0-1.35-.17-1.77-.5s-.72-.9-.91-1.7l-.57-2.3c-1.97,1.87-4.25,3.35-6.83,4.45-2.58,1.1-5.08,1.65-7.5,1.65ZM201.31,129.35c1.59,0,3.23-.37,4.92-1.1,1.69-.73,3.26-1.73,4.73-3v-8.69c-2.8-.47-5.32-.7-7.54-.7-5.54,0-8.31,2.33-8.31,6.99,0,2.07.54,3.66,1.62,4.79,1.08,1.13,2.61,1.7,4.58,1.7Z"/><path class="cls-1" d="M235.78,137.54c-.83,0-1.43-.2-1.81-.6-.38-.4-.57-1.03-.57-1.9v-5.09c0-1.06.11-1.88.33-2.45.22-.56.62-1.21,1.2-1.95l23.59-28.27h-21.77c-.83,0-1.43-.2-1.81-.6-.38-.4-.57-1.03-.57-1.9v-5.79c0-.93.19-1.58.57-1.95.38-.37.98-.55,1.81-.55h34.76c.89,0,1.51.18,1.86.55.35.37.53,1.02.53,1.95v5.29c0,1.07-.11,1.88-.33,2.45-.22.57-.62,1.22-1.2,1.95l-23.87,28.07h23.49c.89,0,1.51.18,1.86.55.35.37.53,1.02.53,1.95v5.79c0,.87-.18,1.5-.53,1.9-.35.4-.97.6-1.86.6h-36.19Z"/><path class="cls-1" d="M304.82,139.04c-7.58,0-13.5-2.38-17.76-7.14-4.27-4.76-6.4-11.4-6.4-19.93s2.13-15.07,6.4-19.83c4.26-4.76,10.18-7.14,17.76-7.14s13.5,2.38,17.76,7.14c4.26,4.76,6.4,11.37,6.4,19.83s-2.13,15.17-6.4,19.93c-4.27,4.76-10.19,7.14-17.76,7.14ZM304.82,127.85c6.68,0,10.03-5.29,10.03-15.88s-3.34-15.78-10.03-15.78-10.03,5.26-10.03,15.78,3.34,15.88,10.03,15.88Z"/><path class="cls-1" d="M342.25,137.54c-.83,0-1.43-.2-1.81-.6-.38-.4-.57-1.03-.57-1.9v-46.05c0-.93.19-1.58.57-1.95.38-.37.99-.55,1.81-.55h6.88c1.46,0,2.35.73,2.67,2.2l.86,3.3c5.73-4.66,11.84-6.99,18.33-6.99,4.52,0,8,1.28,10.46,3.85,2.45,2.56,3.68,6.21,3.68,10.94v35.26c0,.87-.18,1.5-.53,1.9-.35.4-.97.6-1.86.6h-9.17c-.83,0-1.43-.2-1.81-.6-.38-.4-.57-1.03-.57-1.9v-30.97c0-2.73-.57-4.73-1.72-5.99-1.14-1.26-2.9-1.9-5.25-1.9-3.5,0-6.97,1.13-10.41,3.4v35.46c0,.87-.18,1.5-.53,1.9-.35.4-.97.6-1.86.6h-9.17Z"/><circle class="cls-1" cx="503.39" cy="113.91" r="89.53"/><path class="cls-2" d="M542.49,112.39c2.05-5.88,4.09-11.76,6.14-17.64,1.3-3.72,2.58-7.45,3.91-11.16.53-1.48.92-1.72,2.48-1.73.86,0,1.72,0,2.57,0,.52,0,1.04-.02,1.56.01.74.04,1.03.39.92,1.12-.06.38-.18.76-.32,1.12-5.58,14.19-11.15,28.38-16.74,42.57-.78,1.99-1.8,3.85-3.22,5.48-1.81,2.08-4.14,3.08-6.85,3.24-1.77.11-3.53.02-5.26-.47-1.1-.31-1.51-.8-1.55-1.94-.03-.78-.03-1.56,0-2.34.03-.97.42-1.34,1.38-1.22,1.24.16,2.47.29,3.73.2,2.03-.14,3.62-1.01,4.69-2.78,1.3-2.15,1.94-4.58,2.87-6.88.14-.34-.04-.6-.15-.89-4.66-11.49-9.32-22.98-13.97-34.47-.21-.53-.42-1.07-.53-1.62-.14-.71.19-1.12.91-1.13,1.69-.02,3.38-.01,5.07,0,1.03.01,1.49.7,1.8,1.56.83,2.29,1.67,4.58,2.49,6.87,2.57,7.12,5.14,14.25,7.71,21.37.09.24.11.52.36.7Z"/><path class="cls-4" d="M493.63,166.51c-15.64-1.22-29.99-6.16-43.02-14.91-3.39-2.28-6.59-4.82-9.64-7.53-.15-.14-.3-.29-.42-.46-.27-.39-.35-.82-.06-1.24.31-.45.78-.52,1.25-.37.39.12.75.35,1.11.55,9.88,5.63,20.39,9.67,31.46,12.27,7.28,1.71,14.65,2.74,22.12,3.09,17.6.82,34.5-2.3,50.78-8.97.46-.19.9-.4,1.41-.42.83-.03,1.58.38,1.87,1.03.3.68.15,1.46-.57,2.02-1.02.8-2.09,1.55-3.18,2.25-7.82,5.03-16.35,8.33-25.37,10.47-5.27,1.25-10.61,2.05-16.02,2.35-.15,0-6.63.11-7.09.07-.25,0-3.97-.14-4.62-.19Z"/><path class="cls-4" d="M548.89,144.27c-2.97,0-5.91.38-8.86.68-.49.05-1.12.25-1.35-.41-.21-.63.28-1.02.73-1.33,1.98-1.4,4.19-2.28,6.54-2.83,4.26-1,8.54-1.15,12.82-.13.08.02.15.03.23.05,1.83.54,2.27,1.08,2.29,2.99.02,2.09-.35,4.14-.92,6.14-1.1,3.93-2.78,7.55-5.59,10.57-.49.53-1.04,1.02-1.59,1.49-.39.33-.9.56-1.36.21-.45-.35-.23-.86-.06-1.29,1.19-3.02,2.38-6.04,3.2-9.18.37-1.41.69-2.83.59-4.3-.09-1.29-.47-1.77-1.74-2.17-1.61-.52-3.28-.47-4.95-.48Z"/><path class="cls-2" d="M482.08,90.68c-1.71-4.92-5.03-8.34-10.25-9.53-4.22-.96-8.26-.26-12.08,1.75-1.43.75-2.73,1.69-4.05,2.78-.15-.9-.27-1.68-.42-2.46-.19-.93-.67-1.34-1.62-1.36-1.04-.02-2.08-.01-3.12,0-1.22,0-1.66.43-1.66,1.64,0,16.46,0,32.93,0,49.39,0,1.25.44,1.67,1.7,1.69,1.22.01,2.45,0,3.67,0,1.61,0,1.95-.35,1.95-1.98v-16.68c.13.04.18.05.22.07.17.12.33.26.49.39,4.05,3.29,8.7,4.4,13.75,3.47,5.67-1.04,9.31-4.67,11.26-9.93,2.36-6.36,2.38-12.84.16-19.24ZM475.06,107.95c-1.41,4.3-4.56,6.31-9.16,6.27-3.51-.03-6.58-1.3-9.39-3.31-.32-.23-.3-.5-.3-.81v-9.67c0-3.25.01-6.5-.01-9.75,0-.47.15-.74.54-1,2.95-1.98,6.15-3.1,9.73-3,4.3.12,7.18,2.03,8.55,6.1,1.68,5.01,1.7,10.14.05,15.16Z"/><path class="cls-2" d="M519.15,90.27c-.47-4.64-3.24-7.8-7.78-8.88-3.34-.79-6.71-.75-10.08-.38-2.85.31-5.64.88-8.31,1.97-1.38.56-1.63.93-1.64,2.39,0,.52,0,1.04,0,1.56,0,1.6.42,1.9,1.94,1.44,4.26-1.28,8.59-2.03,13.06-1.67,3.87.31,5.67,2.1,5.94,5.96.12,1.69.05,3.38.07,5.07,0,1.01,0,.99-.99.78-4.03-.88-8.09-1.43-12.22-.69-2.94.52-5.56,1.71-7.59,3.97-2.46,2.73-3.07,6-2.57,9.52.6,4.2,2.91,7.07,6.97,8.34,4.43,1.39,8.68.59,12.74-1.48,1.39-.7,2.65-1.6,3.94-2.65.15.92.25,1.67.38,2.41.19,1.03.64,1.41,1.71,1.42.89,0,1.77,0,2.65,0,1.58,0,1.91-.33,1.91-1.92,0-8.03,0-16.07,0-24.11,0-1.01-.04-2.02-.14-3.04ZM511.69,111.46c-2.71,1.86-5.65,3.06-8.95,3.28-.81.05-1.62,0-2.4-.16-2.49-.53-3.99-2.31-4.16-4.87-.27-4.13,1.78-6.57,5.94-7.07,3.29-.39,6.53.04,9.75.71.39.08.5.25.49.62-.02,1.09,0,2.18,0,3.27,0,.99-.04,1.98.02,2.96.04.61-.2.94-.68,1.26Z"/></svg>